<svg width="18" height="18" xmlns="http://www.w3.org/2000/svg"><g id="Symbols" fill="none" fill-rule="evenodd"><g id="_Resource/Icons/ic_inputImage_hover" fill="#000000" fill-rule="nonzero"><path d="M2.975 12.235a1.25 1.25 0 0 0 1.149 1.742h9.751a1.25 1.25 0 0 0 1.065-1.905L13.91 10.4a1.25 1.25 0 0 0-2.024-.145l-.946 1.135a.75.75 0 0 1-1.228-.108l-2.37-4.149a1.25 1.25 0 0 0-2.235.128l-2.132 4.975zm7.504-2.636l.254-.305a2.75 2.75 0 0 1 4.455.32l1.03 1.672a2.75 2.75 0 0 1-2.343 4.191H4.124a2.75 2.75 0 0 1-2.528-3.833L3.73 6.669a2.75 2.75 0 0 1 4.915-.281l1.835 3.211z" id="Path-7"/><path d="M12 6.75a2.386 2.386 0 1 1 0-4.773 2.386 2.386 0 0 1 0 4.773zm0-1.5a.886.886 0 1 0 0-1.773.886.886 0 0 0 0 1.773z" id="Oval-4"/></g></g></svg>